<?xml version="1.0" encoding="UTF-8" standalone="no"?>
<svg
   viewBox="0 0 430 170"
   width="430"
   height="170"
   version="1.1"
   id="svg104"
   sodipodi:docname="lukan-lockup-horizontal-dark.svg"
   inkscape:version="1.3 (0e150ed, 2023-07-21)"
   xmlns:inkscape="http://www.inkscape.org/namespaces/inkscape"
   xmlns:sodipodi="http://sodipodi.sourceforge.net/DTD/sodipodi-0.dtd"
   xmlns="http://www.w3.org/2000/svg"
   xmlns:svg="http://www.w3.org/2000/svg">
  <defs
     id="defs104" />
  <sodipodi:namedview
     id="namedview104"
     pagecolor="#ffffff"
     bordercolor="#cccccc"
     borderopacity="1"
     inkscape:showpageshadow="0"
     inkscape:pageopacity="1"
     inkscape:pagecheckerboard="0"
     inkscape:deskcolor="#d1d1d1"
     inkscape:zoom="1.0904541"
     inkscape:cx="209.54573"
     inkscape:cy="118.29934"
     inkscape:window-width="1296"
     inkscape:window-height="449"
     inkscape:window-x="222"
     inkscape:window-y="38"
     inkscape:window-maximized="0"
     inkscape:current-layer="svg104" />
  <title
     id="title1">LUKAN horizontal lockup — dark</title>
  <!-- mark: scale 0.778 → visible halo 84px tall, matches wordmark stack height -->
  <g
     transform="matrix(1.3212454,0,0,1.3212454,-59.292427,-45.178123)"
     id="g103">
    <g
       fill="#ffb84d"
       id="g102">
      <circle
         cx="122"
         cy="100"
         r="2.5999999"
         id="circle1" />
      <circle
         cx="119.05"
         cy="111"
         r="2.5999999"
         id="circle2" />
      <circle
         cx="111"
         cy="119.05"
         r="2.5999999"
         id="circle3" />
      <circle
         cx="100"
         cy="122"
         r="2.5999999"
         id="circle4" />
      <circle
         cx="89"
         cy="119.05"
         r="2.5999999"
         id="circle5" />
      <circle
         cx="80.949997"
         cy="111"
         r="2.5999999"
         id="circle6" />
      <circle
         cx="78"
         cy="100"
         r="2.5999999"
         id="circle7" />
      <circle
         cx="80.949997"
         cy="89"
         r="2.5999999"
         id="circle8" />
      <circle
         cx="89"
         cy="80.949997"
         r="2.5999999"
         id="circle9" />
      <circle
         cx="100"
         cy="78"
         r="2.5999999"
         id="circle10" />
      <circle
         cx="111"
         cy="80.949997"
         r="2.5999999"
         id="circle11" />
      <circle
         cx="119.05"
         cy="89"
         r="2.5999999"
         id="circle12" />
      <circle
         cx="129.42"
         cy="105.85"
         r="2"
         id="circle13" />
      <circle
         cx="124.94"
         cy="116.67"
         r="2"
         id="circle14" />
      <circle
         cx="116.67"
         cy="124.94"
         r="2"
         id="circle15" />
      <circle
         cx="105.85"
         cy="129.42"
         r="2"
         id="circle16" />
      <circle
         cx="94.150002"
         cy="129.42"
         r="2"
         id="circle17" />
      <circle
         cx="83.330002"
         cy="124.94"
         r="2"
         id="circle18" />
      <circle
         cx="75.059998"
         cy="116.67"
         r="2"
         id="circle19" />
      <circle
         cx="70.580002"
         cy="105.85"
         r="2"
         id="circle20" />
      <circle
         cx="70.580002"
         cy="94.150002"
         r="2"
         id="circle21" />
      <circle
         cx="75.059998"
         cy="83.330002"
         r="2"
         id="circle22" />
      <circle
         cx="83.330002"
         cy="75.059998"
         r="2"
         id="circle23" />
      <circle
         cx="94.150002"
         cy="70.580002"
         r="2"
         id="circle24" />
      <circle
         cx="105.85"
         cy="70.580002"
         r="2"
         id="circle25" />
      <circle
         cx="116.67"
         cy="75.059998"
         r="2"
         id="circle26" />
      <circle
         cx="124.94"
         cy="83.330002"
         r="2"
         id="circle27" />
      <circle
         cx="129.42"
         cy="94.150002"
         r="2"
         id="circle28" />
      <circle
         cx="137.53"
         cy="105.94"
         r="1.5"
         id="circle29" />
      <circle
         cx="133.86"
         cy="117.25"
         r="1.5"
         id="circle30" />
      <circle
         cx="126.87"
         cy="126.87"
         r="1.5"
         id="circle31" />
      <circle
         cx="117.25"
         cy="133.86"
         r="1.5"
         id="circle32" />
      <circle
         cx="105.94"
         cy="137.53"
         r="1.5"
         id="circle33" />
      <circle
         cx="94.059998"
         cy="137.53"
         r="1.5"
         id="circle34" />
      <circle
         cx="82.75"
         cy="133.86"
         r="1.5"
         id="circle35" />
      <circle
         cx="73.129997"
         cy="126.87"
         r="1.5"
         id="circle36" />
      <circle
         cx="66.139999"
         cy="117.25"
         r="1.5"
         id="circle37" />
      <circle
         cx="62.470001"
         cy="105.94"
         r="1.5"
         id="circle38" />
      <circle
         cx="62.470001"
         cy="94.059998"
         r="1.5"
         id="circle39" />
      <circle
         cx="66.139999"
         cy="82.75"
         r="1.5"
         id="circle40" />
      <circle
         cx="73.129997"
         cy="73.129997"
         r="1.5"
         id="circle41" />
      <circle
         cx="82.75"
         cy="66.139999"
         r="1.5"
         id="circle42" />
      <circle
         cx="94.059998"
         cy="62.470001"
         r="1.5"
         id="circle43" />
      <circle
         cx="105.94"
         cy="62.470001"
         r="1.5"
         id="circle44" />
      <circle
         cx="117.25"
         cy="66.139999"
         r="1.5"
         id="circle45" />
      <circle
         cx="126.87"
         cy="73.129997"
         r="1.5"
         id="circle46" />
      <circle
         cx="133.86"
         cy="82.75"
         r="1.5"
         id="circle47" />
      <circle
         cx="137.53"
         cy="94.059998"
         r="1.5"
         id="circle48" />
      <circle
         cx="145.61"
         cy="106"
         r="1"
         id="circle49" />
      <circle
         cx="142.5"
         cy="117.6"
         r="1"
         id="circle50" />
      <circle
         cx="136.49001"
         cy="128"
         r="1"
         id="circle51" />
      <circle
         cx="128"
         cy="136.49001"
         r="1"
         id="circle52" />
      <circle
         cx="117.6"
         cy="142.5"
         r="1"
         id="circle53" />
      <circle
         cx="106"
         cy="145.61"
         r="1"
         id="circle54" />
      <circle
         cx="94"
         cy="145.61"
         r="1"
         id="circle55" />
      <circle
         cx="82.400002"
         cy="142.5"
         r="1"
         id="circle56" />
      <circle
         cx="72"
         cy="136.49001"
         r="1"
         id="circle57" />
      <circle
         cx="63.509998"
         cy="128"
         r="1"
         id="circle58" />
      <circle
         cx="57.5"
         cy="117.6"
         r="1"
         id="circle59" />
      <circle
         cx="54.389999"
         cy="106"
         r="1"
         id="circle60" />
      <circle
         cx="54.389999"
         cy="94"
         r="1"
         id="circle61" />
      <circle
         cx="57.5"
         cy="82.400002"
         r="1"
         id="circle62" />
      <circle
         cx="63.509998"
         cy="72"
         r="1"
         id="circle63" />
      <circle
         cx="72"
         cy="63.509998"
         r="1"
         id="circle64" />
      <circle
         cx="82.400002"
         cy="57.5"
         r="1"
         id="circle65" />
      <circle
         cx="94"
         cy="54.389999"
         r="1"
         id="circle66" />
      <circle
         cx="106"
         cy="54.389999"
         r="1"
         id="circle67" />
      <circle
         cx="117.6"
         cy="57.5"
         r="1"
         id="circle68" />
      <circle
         cx="128"
         cy="63.509998"
         r="1"
         id="circle69" />
      <circle
         cx="136.49001"
         cy="72"
         r="1"
         id="circle70" />
      <circle
         cx="142.5"
         cy="82.400002"
         r="1"
         id="circle71" />
      <circle
         cx="145.61"
         cy="94"
         r="1"
         id="circle72" />
      <circle
         cx="153.7"
         cy="105.64"
         r="0.69999999"
         id="circle73" />
      <circle
         cx="151.36"
         cy="116.69"
         r="0.69999999"
         id="circle74" />
      <circle
         cx="146.77"
         cy="127"
         r="0.69999999"
         id="circle75" />
      <circle
         cx="140.13"
         cy="136.13"
         r="0.69999999"
         id="circle76" />
      <circle
         cx="131.74001"
         cy="143.69"
         r="0.69999999"
         id="circle77" />
      <circle
         cx="121.96"
         cy="149.33"
         r="0.69999999"
         id="circle78" />
      <circle
         cx="111.23"
         cy="152.82001"
         r="0.69999999"
         id="circle79" />
      <circle
         cx="100"
         cy="154"
         r="0.69999999"
         id="circle80" />
      <circle
         cx="88.769997"
         cy="152.82001"
         r="0.69999999"
         id="circle81" />
      <circle
         cx="78.040001"
         cy="149.33"
         r="0.69999999"
         id="circle82" />
      <circle
         cx="68.260002"
         cy="143.69"
         r="0.69999999"
         id="circle83" />
      <circle
         cx="59.869999"
         cy="136.13"
         r="0.69999999"
         id="circle84" />
      <circle
         cx="53.23"
         cy="127"
         r="0.69999999"
         id="circle85" />
      <circle
         cx="48.639999"
         cy="116.69"
         r="0.69999999"
         id="circle86" />
      <circle
         cx="46.299999"
         cy="105.64"
         r="0.69999999"
         id="circle87" />
      <circle
         cx="46.299999"
         cy="94.360001"
         r="0.69999999"
         id="circle88" />
      <circle
         cx="48.639999"
         cy="83.309998"
         r="0.69999999"
         id="circle89" />
      <circle
         cx="53.23"
         cy="73"
         r="0.69999999"
         id="circle90" />
      <circle
         cx="59.869999"
         cy="63.869999"
         r="0.69999999"
         id="circle91" />
      <circle
         cx="68.260002"
         cy="56.310001"
         r="0.69999999"
         id="circle92" />
      <circle
         cx="78.040001"
         cy="50.669998"
         r="0.69999999"
         id="circle93" />
      <circle
         cx="88.769997"
         cy="47.18"
         r="0.69999999"
         id="circle94" />
      <circle
         cx="100"
         cy="46"
         r="0.69999999"
         id="circle95" />
      <circle
         cx="111.23"
         cy="47.18"
         r="0.69999999"
         id="circle96" />
      <circle
         cx="121.96"
         cy="50.669998"
         r="0.69999999"
         id="circle97" />
      <circle
         cx="131.74001"
         cy="56.310001"
         r="0.69999999"
         id="circle98" />
      <circle
         cx="140.13"
         cy="63.869999"
         r="0.69999999"
         id="circle99" />
      <circle
         cx="146.77"
         cy="73"
         r="0.69999999"
         id="circle100" />
      <circle
         cx="151.36"
         cy="83.309998"
         r="0.69999999"
         id="circle101" />
      <circle
         cx="153.7"
         cy="94.360001"
         r="0.69999999"
         id="circle102" />
    </g>
    <rect
       x="91"
       y="94"
       width="18"
       height="12"
       rx="2"
       fill="#ffd37a"
       id="rect102" />
  </g>
  <!-- wordmark: middle-anchored for consistent alignment with stacked lockup -->
  <g
     transform="translate(296.76262,105.41934)"
     id="g104">
    <text
       x="0"
       y="0"
       font-family="'Familjen Grotesk', 'Helvetica Neue', Arial, sans-serif"
       font-weight="700"
       font-size="86px"
       letter-spacing="-5.2"
       style="font-feature-settings:'ss01', 'ss02'"
       text-anchor="middle"
       fill="#f1ecdf"
       id="text103">LUKAN</text>
    <text
       x="0"
       y="28"
       font-family="ui-monospace, 'JetBrains Mono', Menlo, Consolas, monospace"
       font-weight="500"
       font-size="12px"
       letter-spacing="3.6"
       textLength="249.39999"
       lengthAdjust="spacing"
       text-anchor="middle"
       fill="#a8a39a"
       id="text104">WIND ROBOTICS</text>
  </g>
</svg>
