<svg xmlns="http://www.w3.org/2000/svg" viewBox="0 0 360 280" width="360" height="280">
  <title>LUKAN stacked lockup — dark</title>
  <rect width="360" height="280" fill="#0A0A0A"/>
  <!-- mark, centred on x=180, visible diameter 80px -->
  <g transform="translate(106 6) scale(0.741)">
    <g fill="#FFB84D">
      <circle cx="122.00" cy="100.00" r="2.6"/>
    <circle cx="119.05" cy="111.00" r="2.6"/>
    <circle cx="111.00" cy="119.05" r="2.6"/>
    <circle cx="100.00" cy="122.00" r="2.6"/>
    <circle cx="89.00" cy="119.05" r="2.6"/>
    <circle cx="80.95" cy="111.00" r="2.6"/>
    <circle cx="78.00" cy="100.00" r="2.6"/>
    <circle cx="80.95" cy="89.00" r="2.6"/>
    <circle cx="89.00" cy="80.95" r="2.6"/>
    <circle cx="100.00" cy="78.00" r="2.6"/>
    <circle cx="111.00" cy="80.95" r="2.6"/>
    <circle cx="119.05" cy="89.00" r="2.6"/>
    <circle cx="129.42" cy="105.85" r="2.0"/>
    <circle cx="124.94" cy="116.67" r="2.0"/>
    <circle cx="116.67" cy="124.94" r="2.0"/>
    <circle cx="105.85" cy="129.42" r="2.0"/>
    <circle cx="94.15" cy="129.42" r="2.0"/>
    <circle cx="83.33" cy="124.94" r="2.0"/>
    <circle cx="75.06" cy="116.67" r="2.0"/>
    <circle cx="70.58" cy="105.85" r="2.0"/>
    <circle cx="70.58" cy="94.15" r="2.0"/>
    <circle cx="75.06" cy="83.33" r="2.0"/>
    <circle cx="83.33" cy="75.06" r="2.0"/>
    <circle cx="94.15" cy="70.58" r="2.0"/>
    <circle cx="105.85" cy="70.58" r="2.0"/>
    <circle cx="116.67" cy="75.06" r="2.0"/>
    <circle cx="124.94" cy="83.33" r="2.0"/>
    <circle cx="129.42" cy="94.15" r="2.0"/>
    <circle cx="137.53" cy="105.94" r="1.5"/>
    <circle cx="133.86" cy="117.25" r="1.5"/>
    <circle cx="126.87" cy="126.87" r="1.5"/>
    <circle cx="117.25" cy="133.86" r="1.5"/>
    <circle cx="105.94" cy="137.53" r="1.5"/>
    <circle cx="94.06" cy="137.53" r="1.5"/>
    <circle cx="82.75" cy="133.86" r="1.5"/>
    <circle cx="73.13" cy="126.87" r="1.5"/>
    <circle cx="66.14" cy="117.25" r="1.5"/>
    <circle cx="62.47" cy="105.94" r="1.5"/>
    <circle cx="62.47" cy="94.06" r="1.5"/>
    <circle cx="66.14" cy="82.75" r="1.5"/>
    <circle cx="73.13" cy="73.13" r="1.5"/>
    <circle cx="82.75" cy="66.14" r="1.5"/>
    <circle cx="94.06" cy="62.47" r="1.5"/>
    <circle cx="105.94" cy="62.47" r="1.5"/>
    <circle cx="117.25" cy="66.14" r="1.5"/>
    <circle cx="126.87" cy="73.13" r="1.5"/>
    <circle cx="133.86" cy="82.75" r="1.5"/>
    <circle cx="137.53" cy="94.06" r="1.5"/>
    <circle cx="145.61" cy="106.00" r="1.0"/>
    <circle cx="142.50" cy="117.60" r="1.0"/>
    <circle cx="136.49" cy="128.00" r="1.0"/>
    <circle cx="128.00" cy="136.49" r="1.0"/>
    <circle cx="117.60" cy="142.50" r="1.0"/>
    <circle cx="106.00" cy="145.61" r="1.0"/>
    <circle cx="94.00" cy="145.61" r="1.0"/>
    <circle cx="82.40" cy="142.50" r="1.0"/>
    <circle cx="72.00" cy="136.49" r="1.0"/>
    <circle cx="63.51" cy="128.00" r="1.0"/>
    <circle cx="57.50" cy="117.60" r="1.0"/>
    <circle cx="54.39" cy="106.00" r="1.0"/>
    <circle cx="54.39" cy="94.00" r="1.0"/>
    <circle cx="57.50" cy="82.40" r="1.0"/>
    <circle cx="63.51" cy="72.00" r="1.0"/>
    <circle cx="72.00" cy="63.51" r="1.0"/>
    <circle cx="82.40" cy="57.50" r="1.0"/>
    <circle cx="94.00" cy="54.39" r="1.0"/>
    <circle cx="106.00" cy="54.39" r="1.0"/>
    <circle cx="117.60" cy="57.50" r="1.0"/>
    <circle cx="128.00" cy="63.51" r="1.0"/>
    <circle cx="136.49" cy="72.00" r="1.0"/>
    <circle cx="142.50" cy="82.40" r="1.0"/>
    <circle cx="145.61" cy="94.00" r="1.0"/>
    <circle cx="153.70" cy="105.64" r="0.7"/>
    <circle cx="151.36" cy="116.69" r="0.7"/>
    <circle cx="146.77" cy="127.00" r="0.7"/>
    <circle cx="140.13" cy="136.13" r="0.7"/>
    <circle cx="131.74" cy="143.69" r="0.7"/>
    <circle cx="121.96" cy="149.33" r="0.7"/>
    <circle cx="111.23" cy="152.82" r="0.7"/>
    <circle cx="100.00" cy="154.00" r="0.7"/>
    <circle cx="88.77" cy="152.82" r="0.7"/>
    <circle cx="78.04" cy="149.33" r="0.7"/>
    <circle cx="68.26" cy="143.69" r="0.7"/>
    <circle cx="59.87" cy="136.13" r="0.7"/>
    <circle cx="53.23" cy="127.00" r="0.7"/>
    <circle cx="48.64" cy="116.69" r="0.7"/>
    <circle cx="46.30" cy="105.64" r="0.7"/>
    <circle cx="46.30" cy="94.36" r="0.7"/>
    <circle cx="48.64" cy="83.31" r="0.7"/>
    <circle cx="53.23" cy="73.00" r="0.7"/>
    <circle cx="59.87" cy="63.87" r="0.7"/>
    <circle cx="68.26" cy="56.31" r="0.7"/>
    <circle cx="78.04" cy="50.67" r="0.7"/>
    <circle cx="88.77" cy="47.18" r="0.7"/>
    <circle cx="100.00" cy="46.00" r="0.7"/>
    <circle cx="111.23" cy="47.18" r="0.7"/>
    <circle cx="121.96" cy="50.67" r="0.7"/>
    <circle cx="131.74" cy="56.31" r="0.7"/>
    <circle cx="140.13" cy="63.87" r="0.7"/>
    <circle cx="146.77" cy="73.00" r="0.7"/>
    <circle cx="151.36" cy="83.31" r="0.7"/>
    <circle cx="153.70" cy="94.36" r="0.7"/>
    </g>
    <rect x="91.0" y="94.0" width="18" height="12" rx="2" fill="#FFD37A"/>
  </g>
  <!-- wordmark, both lines centred on x=180; WR spans full LUKAN width -->
  <g transform="translate(180 200)">
    <text x="0" y="0"
          font-family="Familjen Grotesk, Helvetica Neue, Arial, sans-serif"
          font-weight="700"
          font-size="76"
          letter-spacing="-4.6"
          style="font-feature-settings: 'ss01', 'ss02'"
          text-anchor="middle"
          fill="#F1ECDF">LUKAN</text>
    <text x="0" y="30"
          font-family="ui-monospace, 'JetBrains Mono', Menlo, Consolas, monospace"
          font-weight="500"
          font-size="11"
          letter-spacing="4.8"
          textLength="220.4"
          lengthAdjust="spacing"
          text-anchor="middle"
          fill="#A8A39A">WIND  ROBOTICS</text>
  </g>
</svg>
